<?xml version="1.0" encoding="utf-8"?>
<svg xmlns="http://www.w3.org/2000/svg" viewBox="0 0 870.4 870.4">
  <defs>
    <style>
      .cls-1 {
        fill: #fff;
      }

      .cls-2 {
        fill: #673ab7;
      }
    </style>
  </defs>
  <g id="cirkel" transform="matrix(1, 0, 0, 1, -96.140048, -109.410068)">
    <circle class="cls-2" cx="531.33" cy="544.6" r="435.19"/>
  </g>
  <g id="tv" transform="matrix(1, 0, 0, 1, -96.140048, -109.410068)">
    <path class="cls-1" d="M684.19,285.84c0,9.66-7.83,17.48-17.48,17.48-6.26,0-11.76-3.29-14.85-8.25-1.66-2.68-2.63-5.84-2.63-9.23,0-9.65,7.83-17.48,17.48-17.48s17.48,7.83,17.48,17.48Z"/>
    <path class="cls-1" d="M441.38,266.74c0,4.74-1.9,9.06-4.97,12.2-3.17,3.26-7.6,5.28-12.51,5.28-9.65,0-17.48-7.83-17.48-17.48s7.83-17.48,17.48-17.48,17.48,7.83,17.48,17.48Z"/>
    <path class="cls-1" d="M761.86,376.71h-181.7c-.56-7.98-10.28-14.77-24-17.75h-.01c-4.78-1.04-10.03-1.62-15.56-1.62-6.51,0-12.65.8-18.07,2.22-12.39,3.22-20.99,9.66-21.51,17.15h-190.64c-32.67,0-59.4,26.73-59.4,59.4v287.13c0,32.68,26.73,59.41,59.4,59.41h9.95c.14.68.36,1.36.68,2.02l11.31,23.91c3.3,6.96,13.19,6.96,16.49,0l11.31-23.91c.32-.66.54-1.34.68-2.02h349.76c.12.94.38,1.88.82,2.8l11.32,23.91c3.29,6.96,13.19,6.96,16.48,0l11.32-23.91c.44-.92.7-1.86.82-2.8h10.55c32.68,0,59.41-26.73,59.41-59.41v-287.13c0-32.67-26.73-59.4-59.41-59.4ZM719.9,691.04c0,24.63-22.18,44.79-49.29,44.79h-341.06c-27.11,0-49.29-20.16-49.29-44.79v-230.75c0-24.63,22.18-44.78,49.29-44.78h341.06c27.11,0,49.29,20.15,49.29,44.78v230.75ZM771.39,427.41c15.07,0,27.29,12.22,27.29,27.29s-12.22,27.29-27.29,27.29-27.29-12.22-27.29-27.29,12.22-27.29,27.29-27.29ZM771.81,570.55c-15.07,0-27.29-12.22-27.29-27.29s12.22-27.29,27.29-27.29,27.29,12.22,27.29,27.29-12.22,27.29-27.29,27.29Z"/>
    <rect class="cls-1" x="472.61" y="254.28" width="10.04" height="130.36" transform="translate(-86 431.3) rotate(-45)"/>
    <rect class="cls-1" x="602.58" y="261.8" width="10.04" height="130.36" transform="translate(526 -358.17) rotate(54.92)"/>
  </g>
</svg>